<svg width="1024" height="1024" xmlns="http://www.w3.org/2000/svg" class="icon">
 <defs>
  <style type="text/css"/>
 </defs>
 <g>
  <title>background</title>
  <rect fill="none" id="canvas_background" height="402" width="582" y="-1" x="-1"/>
 </g>
 <g>
  <title>Layer 1</title>
  <path id="svg_1" d="m939,784.693c0,7.168 -2.867,12.083 -8.5,14.95l-444.21,239.207l-2.15,0c-1.434,1.433 -3.585,2.15 -6.452,2.15s-5.018,-0.717 -6.451,-2.15l-2.048,0l-444.211,-239.207c-5.735,-2.867 -8.602,-7.782 -8.602,-14.95l0,-514.663c0,-1.332 0.717,-2.868 2.15,-4.301l0,-2.15l4.301,-4.302l2.15,-2.15l444.213,-239.103c5.734,-1.331 11.366,-1.331 17.1,0l444.212,239.206l2.15,2.15l4.301,4.302l0,2.15l2.048,4.198l0,514.663l-0.001,0zm-888.421,-10.65l410.01,222.106l0,-474.112l-410.012,-222.107l0,474.112l0.002,0.001zm19.25,-501.862l407.86,219.955l407.86,-219.955l-407.86,-219.955l-407.86,219.955zm834.97,501.862l0,-474.112l-410.01,222.106l0,474.112l410.01,-222.106z"/>
 </g>
</svg>
