<?xml version="1.0" standalone="no"?><!DOCTYPE svg PUBLIC "-//W3C//DTD SVG 1.1//EN" "http://www.w3.org/Graphics/SVG/1.1/DTD/svg11.dtd"><svg t="1545722915385" class="icon" style="" viewBox="0 0 1024 1024" version="1.1" xmlns="http://www.w3.org/2000/svg" p-id="11864" xmlns:xlink="http://www.w3.org/1999/xlink" width="200" height="200"><defs><style type="text/css"></style></defs><path d="M512 73.142857c241.371429 0 438.857143 197.485714 438.857143 438.857143s-197.485714 438.857143-438.857143 438.857143-438.857143-197.485714-438.857143-438.857143 197.485714-438.857143 438.857143-438.857143m0-73.142857C226.742857 0 0 226.742857 0 512s226.742857 512 512 512 512-226.742857 512-512-226.742857-512-512-512z" fill="#707070" p-id="11865"></path><path d="M329.142857 336.457143c-29.257143 0-58.514286 29.257143-58.514286 58.514286s29.257143 58.514286 58.514286 58.514285 58.514286-29.257143 58.514286-58.514285-29.257143-58.514286-58.514286-58.514286zM694.857143 336.457143c-29.257143 0-58.514286 29.257143-58.514286 58.514286s29.257143 58.514286 58.514286 58.514285 58.514286-29.257143 58.514286-58.514285-29.257143-58.514286-58.514286-58.514286zM226.742857 585.142857c29.257143 124.342857 146.285714 219.428571 285.257143 219.428572s248.685714-95.085714 285.257143-219.428572H226.742857z" p-id="11866"></path></svg>
