<?xml version="1.0" standalone="no"?><!DOCTYPE svg PUBLIC "-//W3C//DTD SVG 1.1//EN" "http://www.w3.org/Graphics/SVG/1.1/DTD/svg11.dtd"><svg t="1545361922722" class="icon" style="" viewBox="0 0 1024 1024" version="1.1" xmlns="http://www.w3.org/2000/svg" p-id="1526" xmlns:xlink="http://www.w3.org/1999/xlink" width="200" height="200"><defs><style type="text/css"></style></defs><path d="M0 0h1024v1024H0z" fill="#1FC101" p-id="1527"></path><path d="M771.92 376.856V704.15c0 18.93-15.39 34.319-34.32 34.319H286.4c-18.93 0-34.32-15.39-34.32-34.319V319.851c0-18.93 15.39-34.319 34.32-34.319h200.927c10.042 0 19.652 3.902 26.804 10.91l29.84 29.117c11.198 10.91 26.154 17.05 41.832 17.05h151.87c18.93-0.071 34.247 15.318 34.247 34.247z" fill="#FFFFFF" p-id="1528"></path><path d="M630.96 529.087l-86.05-59.967c-3.035-2.096-7.153 0.072-7.08 3.757l0.36 30.634a4.533 4.533 0 0 1-4.551 4.551H388.633a4.533 4.533 0 0 0-4.552 4.552v43.133a4.533 4.533 0 0 0 4.552 4.552h145.728c2.457 0 4.48 2.023 4.552 4.48l0.361 30.706c0.073 3.685 4.263 5.78 7.225 3.612l84.677-62.568c2.385-1.95 2.312-5.708-0.216-7.442z" fill="#1FC101" p-id="1529"></path></svg>