<?xml version="1.0" standalone="no"?><!DOCTYPE svg PUBLIC "-//W3C//DTD SVG 1.1//EN" "http://www.w3.org/Graphics/SVG/1.1/DTD/svg11.dtd"><svg t="1545461184928" class="icon" style="" viewBox="0 0 1024 1024" version="1.1" xmlns="http://www.w3.org/2000/svg" p-id="2309" xmlns:xlink="http://www.w3.org/1999/xlink" width="200" height="200"><defs><style type="text/css"></style></defs><path d="M931.2870400000002 513.3465600000001z m92.71296 1.4210854715202004e-14a92.70784 92.70784 0 1 0-185.42592-2.842170943040401e-14 92.71296 92.71296 0 0 0 185.42592 2.842170943040401e-14M512 512z m92.71296 1.4210854715202004e-14a92.71808 92.71808 0 1 0-185.43104-1.4210854715202004e-14 92.71808 92.71808 0 0 0 185.43104 1.4210854715202004e-14M92.71296000000001 510.65344z m92.71296 1.4210854715202004e-14c1.0658141036401503e-14-51.20512-41.50783999999999-92.71296-92.71295999999998-92.71296000000002C41.50783999999999 417.94047999999987 0 459.44831999999985 0 510.65344000000005S41.50783999999999 603.3715199999999 92.71296000000001 603.3715199999999c51.20512 1.0658141036401503e-14 92.71296000000001-41.51295999999998 92.71296000000001-92.71807999999997" p-id="2310" data-spm-anchor-id="a313x.7781069.0.i0" class="selected" fill="#5E5E5E"></path></svg>