<svg width="1024" height="1024" xmlns="http://www.w3.org/2000/svg" class="icon">
 <defs>
  <style type="text/css"/>
 </defs>
 <g>
  <title>background</title>
  <rect fill="none" id="canvas_background" height="402" width="582" y="-1" x="-1"/>
 </g>
 <g>
  <title>Layer 1</title>
  <path stroke="null" style="vector-effect: non-scaling-stroke;" transform="translate(4.266670227050781,21.266708374023438) scale(1,0.9989963173866272) translate(-4.266670227050781,-21.266708374023438) translate(4.266670227050781,21.266708374023438) scale(1,1.0020073652267456) translate(-4.266670227050781,-21.266708374023438) translate(4.266670227050781,21.266708374023438) scale(1,0.9989963173866272) translate(-4.266670227050781,-21.266708374023438) translate(4.266670227050781,21.266708374023438) scale(1,1.0040147304534912) translate(-4.266670227050781,-21.266708374023438) translate(4.266670227050781,21.266708374023438) scale(1,1.0020073652267456) translate(-4.266670227050781,-21.266708374023438) " id="svg_1" fill="#5D93E1" d="m1019.73333,21.266709l-1015.46666,0l0,996.333256l1017.6,0l-83.2,-493.568174l81.06666,-502.765082zm-375.46666,220.726138c8.53333,15.328194 17.06666,33.722039 25.6,49.050248c8.53333,15.328209 19.2,30.656403 27.73333,45.984612l-40.53333,42.918976c-2.13334,-9.196922 -6.4,-15.328209 -10.66667,-27.590767l-12.8,-27.590767c-4.26667,-9.196922 -10.66667,-18.393845 -14.93333,-24.525131c-4.26667,-9.196922 -10.66667,-12.262558 -14.93334,-18.393845l40.53334,-39.853326zm78.93333,588.603034c-6.4,18.393845 -12.8,30.656403 -19.2,36.78769c-8.53333,6.131272 -17.06667,6.131272 -27.73333,0s-23.46667,-15.328209 -38.4,-30.656418c-10.66667,-9.196922 -19.2,-21.459481 -29.86667,-39.853326c-10.66667,-15.328209 -19.2,-33.722054 -27.73333,-52.115898c-12.8,12.262573 -25.6,27.590767 -40.53334,42.918976c-14.93333,15.328209 -34.13333,30.656403 -53.33333,49.050248c-4.26667,-9.196922 -8.53333,-18.393845 -17.06667,-27.590767s-14.93333,-18.393845 -23.46666,-24.525117c42.66666,-15.328209 83.2,-45.984612 119.46666,-91.969224c-4.26666,-18.393845 -8.53333,-33.722054 -12.8,-52.115898c-4.26666,-18.393845 -6.4,-33.722054 -8.53333,-52.115898l-6.4,-55.181534c-2.13333,-18.393845 -2.13333,-36.78769 -4.26667,-58.24717l-106.66666,0l0,107.297433c12.8,-6.131286 25.6,-12.262573 38.4,-15.328209c12.8,-6.131286 23.46666,-12.262558 34.13333,-18.393845c-4.26667,18.393845 -4.26667,39.853326 0,58.24717c-25.6,9.196922 -49.06667,18.393845 -72.53333,24.525131l0,159.413317c0,12.262573 0,21.459495 -2.13334,27.590767s-6.4,12.262573 -10.66666,18.393845c-6.4,6.131286 -12.8,9.196922 -25.6,12.262573c-10.66667,3.065636 -25.6,6.131272 -42.66667,9.196922c0,-6.131286 0,-12.262573 -2.13333,-18.393845c0,-6.131286 -2.13334,-12.262573 -4.26667,-18.393845l-6.4,-18.393845c-2.13333,-6.131286 -6.4,-12.262573 -8.53333,-21.459495c12.8,3.06565 23.46666,6.131286 29.86666,6.131286c8.53334,0 14.93334,-3.065636 19.2,-6.131286c4.26667,-3.065636 8.53334,-9.196922 10.66667,-15.328194c2.13333,-6.131286 2.13333,-15.328209 2.13333,-24.525131l0,-98.100511c-23.46666,9.196922 -42.66666,18.393845 -57.6,27.590767s-27.73333,15.328209 -34.13333,18.393845c0,-12.262558 -2.13333,-24.525117 -4.26667,-39.853326s-6.4,-27.590767 -10.66666,-39.853326l51.2,-9.196922c17.06666,-3.06565 36.26666,-9.196922 55.46666,-15.328209l0,-116.494355c-17.06666,0 -32,0 -49.06666,3.06565c-17.06667,0 -32,3.065636 -42.66667,3.065636l0,-67.444093c12.8,0 25.6,3.065636 42.66667,3.065636s34.13333,3.065636 49.06666,3.065636l0,-95.03486c-12.8,3.065636 -25.6,9.196922 -36.26666,15.328209c-12.8,6.131272 -23.46667,12.262558 -34.13334,15.328194c0,-12.262558 -2.13333,-24.525117 -6.4,-33.722039c-2.13333,-9.196922 -6.4,-18.393845 -12.8,-27.590767c19.2,-3.06565 36.26667,-6.131286 53.33334,-9.196922c14.93333,-3.06565 29.86666,-9.196922 44.8,-15.328209l38.4,-18.393845c12.8,-6.131286 23.46666,-15.328209 34.13333,-21.459481c2.13333,6.131272 4.26667,9.196922 6.4,18.393845c2.13333,6.131272 6.4,12.262558 8.53333,18.393845s6.4,12.262558 8.53334,18.393845c2.13333,6.131272 4.26666,9.196922 6.4,12.262558c2.13333,3.065636 4.26666,6.131286 2.13333,9.196922s-4.26667,3.065636 -8.53333,0l-10.66667,0c-4.26667,0 -10.66667,0 -17.06667,3.065636c-6.4,0 -12.8,3.06565 -21.33333,3.06565c-6.4,0 -14.93333,3.065636 -21.33333,3.065636l0,107.297433l104.53333,0c0,-30.656418 -2.13333,-58.247185 -2.13333,-82.772302c0,-21.459495 -2.13334,-42.918976 -2.13334,-58.247185s0,-30.656403 -2.13333,-39.853326c0,-12.262558 -2.13333,-21.459481 -2.13333,-30.656403c8.53333,3.065636 19.2,6.131272 27.73333,9.196922c10.66667,3.065636 19.2,3.065636 25.6,3.065636c6.4,0 10.66667,0 10.66667,3.065636s-2.13334,6.131286 -6.4,12.262573c-2.13334,3.065636 -4.26667,15.328194 -6.4,33.722039c0,6.131286 -2.13334,12.262573 -2.13334,24.525131l0,128.756914l76.8,0c14.93334,0 27.73334,0 40.53334,-3.065636c12.8,0 23.46666,-3.06565 29.86666,-3.06565l0,67.444107c-8.53333,0 -17.06666,-3.06565 -29.86666,-3.06565c-12.8,0 -25.6,-3.065636 -38.4,-3.065636l-76.8,0c0,21.459481 2.13333,39.853326 2.13333,58.24717s2.13333,33.722054 4.26667,49.050262s2.13333,27.590767 4.26666,39.853326s4.26667,21.459481 6.4,33.722054c8.53334,-12.262573 14.93334,-24.525131 21.33334,-36.78769c6.4,-12.262573 10.66666,-24.525131 14.93333,-36.78769c4.26667,-12.262573 8.53333,-24.525131 12.8,-39.85334c4.26667,-12.262558 6.4,-30.656403 10.66667,-45.984612c6.4,9.196922 14.93333,15.328209 23.46666,21.459495l25.6,18.393845c2.13334,0 4.26667,3.065636 4.26667,6.131272s-2.13333,3.06565 -6.4,6.131286c-2.13333,0 -4.26667,3.065636 -4.26667,3.065636c-2.13333,3.06565 -4.26666,6.131286 -6.4,12.262573s-6.4,15.328194 -10.66666,24.525117c-4.26667,9.196922 -10.66667,24.525131 -19.2,42.918976c-6.4,15.328209 -12.8,27.590767 -19.2,42.918976c-6.4,12.262558 -14.93334,24.525117 -23.46667,36.78769c4.26667,12.262558 10.66667,21.459481 19.2,33.722039c12.8,21.459495 23.46667,33.722054 29.86667,42.918976c8.53333,9.196922 14.93333,12.262558 19.2,9.196922c4.26666,-3.065636 8.53333,-9.196922 12.8,-24.525131c2.13333,-15.328194 4.26666,-33.722039 6.4,-61.312806c14.93333,24.525117 29.86666,36.78769 44.8,42.918962c-4.26667,30.656418 -10.66667,58.247185 -17.06667,76.64103z"/>
 </g>
</svg>