<?xml version="1.0" standalone="no"?><!DOCTYPE svg PUBLIC "-//W3C//DTD SVG 1.1//EN" "http://www.w3.org/Graphics/SVG/1.1/DTD/svg11.dtd"><svg t="1545362197554" class="icon" style="" viewBox="0 0 1024 1024" version="1.1" xmlns="http://www.w3.org/2000/svg" p-id="2016" xmlns:xlink="http://www.w3.org/1999/xlink" width="200" height="200"><defs><style type="text/css"></style></defs><path d="M0 0.36125h1023.63875v1023.63875H0z" fill="#5D93E1" p-id="2017"></path><path d="M732.760037 782.395823H290.878713c-0.794751 0-1.445001-0.65025-1.445001-1.445001V243.482678c0-0.794751 0.65025-1.445001 1.445001-1.445001h441.953574c0.794751 0 1.445001 0.65025 1.445001 1.445001v537.395894c0 0.867001-0.65025 1.517251-1.517251 1.517251z" fill="#FFFFFF" p-id="2018"></path><path d="M549.244902 446.722077H361.539265c-9.392507 0-17.051012-7.658506-17.051013-17.051012 0-9.392507 7.658506-17.051012 17.051013-17.051013h187.633387c9.392507 0 17.051012 7.658506 17.051013 17.051013 0.07225 9.464757-7.586256 17.051012-16.978763 17.051012zM434.367318 512.180625H361.539265c-9.392507 0-17.051012-7.658506-17.051013-17.051012 0-9.392507 7.658506-17.051012 17.051013-17.051013h72.828053c9.392507 0 17.051012 7.658506 17.051013 17.051013 0 9.392507-7.586256 17.051012-17.051013 17.051012zM485.592606 583.708178H361.539265c-9.392507 0-17.051012-7.658506-17.051013-17.051013 0-9.392507 7.658506-17.051012 17.051013-17.051012h124.053341c9.392507 0 17.051012 7.658506 17.051012 17.051012 0 9.392507-7.658506 17.051012-17.051012 17.051013z" fill="#5D93E1" p-id="2019"></path><path d="M379.601778 336.829747m-31.790023 0a31.790023 31.790023 0 1 0 63.580046 0 31.790023 31.790023 0 1 0-63.580046 0Z" fill="#5D93E1" p-id="2020"></path></svg>