<svg width="1024" height="1024" xmlns="http://www.w3.org/2000/svg" class="icon">
 <defs>
  <style type="text/css"/>
 </defs>
 <g>
  <title>background</title>
  <rect fill="none" id="canvas_background" height="402" width="582" y="-1" x="-1"/>
 </g>
 <g>
  <title>Layer 1</title>
  <path stroke="null" transform="translate(63.93400192260742,935.9406127929688) scale(1,1.080199956893921) translate(-63.93400192260742,-935.9406127929688) translate(63.93400192260742,88.05999755859375) scale(1.0691862106323242,1) translate(-63.93400192260742,-88.05999755859375) translate(63.93400192260742,88.05999755859375) scale(1,1.097891092300415) translate(-63.93400192260742,-88.05999755859375) translate(960.0659790039062,88.05999755859375) scale(1.0602589845657349,1) translate(-960.0659790039062,-88.05999755859375) translate(63.93400192260742,935.9406127929688) scale(1,1.0035382509231567) translate(-63.93400192260742,-935.9406127929688) " id="svg_1" d="m333.213,456.823c14.41,0 27.25,6.127 36.802,15.943c9.524,10.208 15.363,23.703 15.363,38.811c0,15.127 -5.84,28.599 -15.363,38.41c-9.552,9.811 -22.391,16.344 -36.802,16.344c-14.387,0 -27.443,-6.533 -36.773,-16.344c-9.542,-9.811 -15.184,-23.283 -15.184,-38.41c0,-15.108 5.642,-28.604 15.184,-38.811c9.329,-9.816 22.386,-15.943 36.773,-15.943zm179.028,-368.763c122.476,0 233.688,45.165 314.358,118.287c82.377,74.174 133.467,177.061 133.467,291.221c0,113.924 -51.09,217.075 -133.467,290.962c-80.67,73.387 -192.136,118.283 -314.358,118.283c-37.151,0 -73.094,-4.358 -107.311,-12.057c-29.557,-6.41 -58.174,-15.373 -85.302,-27.693l-107.811,61.061c-10.514,5.646 -21.755,8.458 -32.986,7.693c-11.245,-1.019 -22.009,-5.377 -31.797,-12.821c-9.288,-7.693 -16.118,-17.443 -20.019,-29.005c-4.16,-11.033 -4.906,-23.094 -2.458,-35.391l25.91,-119.335c-25.41,-31.792 -46.434,-67.472 -60.627,-105.174c-16.618,-42.618 -25.906,-89.047 -25.906,-136.523c0,-114.16 50.835,-217.047 133.462,-291.221c80.68,-73.122 192.142,-118.287 314.845,-118.287zm269.881,172.938c-68.938,-61.821 -164.278,-100.575 -269.881,-100.575c-106.085,0 -201.424,38.755 -270.334,100.575c-66.986,60.825 -109.033,144.717 -109.033,236.57c0,37.995 7.33,74.934 20.524,109.066c13.689,35.391 33.486,67.995 58.42,96.476c8.557,8.462 12.967,21.283 10.038,34.632l-25.429,117.523l105.604,-60.061c9.033,-4.863 20.274,-5.887 30.311,-1.028c26.882,13.085 55.967,23.623 87.009,30.292c29.335,6.679 60.622,10.014 92.891,10.014c105.604,0 200.943,-38.49 269.881,-100.604c67.457,-60.538 108.759,-144.457 108.759,-236.311s-41.303,-175.744 -108.76,-236.569zm-269.83,195.825c14.41,0 27.264,6.127 36.594,15.943c9.547,10.208 15.189,23.703 15.189,38.811c0,15.127 -5.641,28.599 -15.189,38.41c-9.33,9.811 -22.184,16.344 -36.594,16.344c-14.594,0 -27.632,-6.533 -36.976,-16.344c-9.344,-9.811 -15.391,-23.283 -15.391,-38.41c0,-15.108 6.047,-28.604 15.391,-38.811c9.344,-9.816 22.382,-15.943 36.976,-15.943zm182.594,0c14.406,0 27.24,6.127 36.972,15.943c9.349,10.208 15.184,23.703 15.184,38.811c0,15.127 -5.835,28.599 -15.184,38.41c-9.731,9.811 -22.566,16.344 -36.972,16.344c-14.415,0 -27.25,-6.533 -37,-16.344c-9.325,-9.811 -15.165,-23.283 -15.165,-38.41c0,-15.108 5.84,-28.604 15.165,-38.811c9.75,-9.816 22.585,-15.943 37,-15.943z"/>
 </g>
</svg>
