<svg width="1024" height="1024" xmlns="http://www.w3.org/2000/svg" class="icon">
 <defs>
  <style type="text/css"/>
 </defs>
 <g>
  <title>background</title>
  <rect fill="none" id="canvas_background" height="402" width="582" y="-1" x="-1"/>
 </g>
 <g>
  <title>Layer 1</title>
  <path id="svg_1" fill="#09BB07" class="selected" d="m805.632,923.84l-740.608,0a65.536,65.536 0 0 1 -65.024,-64.768c-0.064,-6.912 6.592,-30.72 13.888,-40.128c39.36,-59.584 178.112,-125.632 260.992,-165.056c24.512,-11.712 45.696,-21.76 52.736,-26.368a47.872,47.872 0 0 0 19.52,-30.656a45.12,45.12 0 0 0 -8.576,-35.456c-6.4,-8.64 -13.184,-17.408 -20.096,-26.368c-38.72,-49.92 -82.624,-106.56 -82.624,-187.968c0,-136.192 89.472,-246.912 199.488,-246.912s199.488,110.72 199.488,246.912c0,92.16 -54.592,156.416 -98.368,208l-7.552,8.896c-2.816,3.904 -6.464,20.736 -5.184,31.36c4.416,36.352 69.888,94.016 206.272,140.608c73.088,24.96 118.528,57.408 135.04,96.64c0.576,1.152 1.92,3.968 2.496,7.808c4.416,31.872 -5.952,51.52 -15.424,62.336a61.824,61.824 0 0 1 -46.464,21.12zm-765.888,-63.872a25.344,25.344 0 0 0 25.28,24.192l740.608,0a22.08,22.08 0 0 0 16.512,-7.552c5.504,-6.272 7.68,-16.128 6.272,-28.672c-8.384,-17.92 -32.96,-47.616 -111.296,-74.368c-140.48,-48 -225.344,-111.232 -232.832,-173.44c-1.984,-16.512 1.856,-47.104 14.272,-61.824l7.616,-8.96c43.712,-51.52 88.96,-104.704 88.96,-182.336c0,-114.24 -71.68,-207.232 -159.808,-207.232s-159.744,93.056 -159.744,207.296c0,67.904 37.76,116.544 74.304,163.648c7.104,9.216 14.08,18.24 20.672,27.2c14.336,19.584 19.904,43.008 15.68,66.112a87.488,87.488 0 0 1 -36.928,56.768c-9.28,6.016 -29.44,15.616 -57.344,28.864c-73.984,35.264 -211.712,100.8 -245.824,152.448c-2.176,3.392 -5.376,13.44 -6.4,17.856zm703.296,-520.704l280.96,0l0,39.68l-280.96,0l0,-39.68zm61.696,152.832l219.264,0l0,39.68l-219.264,0l0,-39.68zm66.176,149.44l153.088,0l0,39.744l-153.088,0l0,-39.744z"/>
  <path id="svg_2" fill="#09BB07" class="selected" d="m834.704,832.952c-9.536,-22.592 -37.888,-55.04 -119.296,-82.88c-140.928,-48.128 -207.232,-107.52 -212.608,-152.064c-1.664,-13.952 2.56,-36.864 9.472,-45.056c43.904,-52.032 97.984,-110.656 97.984,-197.632c0,-121.408 -77.888,-219.968 -173.952,-219.968s-173.952,98.496 -173.952,219.968c0,85.824 55.936,141.952 95.744,196.224c25.6,34.944 8.768,75.648 -15.552,91.456c-31.68,20.608 -251.2,108.544 -299.2,181.12c-4.224,5.504 -9.344,24.256 -9.344,26.752a43.968,43.968 0 0 0 43.712,43.776l717.248,0c20.736,0 46.656,-17.024 40.832,-58.944c-0.128,-1.024 -0.64,-1.92 -1.088,-2.752z"/>
 </g>
</svg>