<svg width="1026" height="1024" xmlns="http://www.w3.org/2000/svg" class="icon">
 <defs>
  <style type="text/css"/>
 </defs>
 <g>
  <title>background</title>
  <rect fill="#5d93e1" id="canvas_background" height="1026" width="1028" y="-1" x="-1"/>
 </g>
 <g>
  <title>Layer 1</title>
  <path stroke="null" id="svg_1" fill="#ffffff" d="m787.812507,554.116452c-2.240476,-86.106186 -74.467064,-155.264734 -163.305453,-155.264734c-52.018742,0 -98.346661,23.745987 -128.262045,60.702775c-16.773927,-21.137003 -43.036128,-34.760078 -72.56798,-34.760078c-50.666029,0 -91.745936,40.057169 -91.745936,89.471005c0,4.306663 0.323537,8.533508 0.928472,12.680536c-7.690609,-1.352035 -15.623335,-2.098153 -23.718901,-2.098153c-73.456457,0 -133.00511,58.065335 -133.00511,129.695443s59.548654,129.694749 133.00511,129.694749l450.511986,0c66.009394,-0.127708 119.46084,-52.337925 119.46084,-116.728952c-0.000714,-54.914982 -38.919424,-100.964693 -91.300984,-113.39259zm-570.032105,-97.455509l34.336341,3.727814c-0.121416,-30.640812 11.828025,-61.183761 35.910459,-84.418918c24.547384,-23.697403 57.006067,-35.222324 89.403329,-34.61363l-3.592474,-33.191495c-40.069301,0.176292 -79.895771,14.889046 -110.276104,44.206279c-29.835392,28.775864 -45.055198,66.352451 -45.782264,104.28995l0.000714,0zm20.022866,-129.154767c35.406941,-34.1729 81.349901,-52.101943 128.019213,-53.837101l-4.098135,-33.907074c-54.178512,2.784582 -107.348559,24.117311 -148.609162,63.93017c-41.157042,39.721936 -63.260401,90.882729 -66.228656,143.024234l35.103402,4.491978c1.756956,-45.079411 20.347831,-89.481416 55.814052,-123.702206l-0.000714,0z"/>
 </g>
</svg>