<?xml version="1.0" standalone="no"?><!DOCTYPE svg PUBLIC "-//W3C//DTD SVG 1.1//EN" "http://www.w3.org/Graphics/SVG/1.1/DTD/svg11.dtd"><svg t="1545311778238" class="icon" style="" viewBox="0 0 1024 1024" version="1.1" xmlns="http://www.w3.org/2000/svg" p-id="29713" xmlns:xlink="http://www.w3.org/1999/xlink" width="200" height="200"><defs><style type="text/css"></style></defs><path d="M924.9 202H97.8c-19 0-34.5-15.4-34.5-34.5 0-19 15.4-34.5 34.5-34.5h827.1c19 0 34.5 15.4 34.5 34.5-0.1 19-15.5 34.5-34.5 34.5z m0 344.6H97.8c-19 0-34.5-15.4-34.5-34.5 0-19 15.4-34.5 34.5-34.5h827.1c19 0 34.5 15.4 34.5 34.5-0.1 19.1-15.5 34.5-34.5 34.5z m0 344.6H97.8c-19 0-34.5-15.4-34.5-34.5 0-19 15.4-34.5 34.5-34.5h827.1c19 0 34.5 15.4 34.5 34.5-0.1 19.1-15.5 34.5-34.5 34.5z m0 0" p-id="29714" data-spm-anchor-id="a313x.7781069.0.i24" class="selected"></path></svg>
