<?xml version="1.0" standalone="no"?><!DOCTYPE svg PUBLIC "-//W3C//DTD SVG 1.1//EN" "http://www.w3.org/Graphics/SVG/1.1/DTD/svg11.dtd"><svg t="1545289618798" class="icon" style="" viewBox="0 0 1024 1024" version="1.1" xmlns="http://www.w3.org/2000/svg" p-id="2782" xmlns:xlink="http://www.w3.org/1999/xlink" width="200" height="200"><defs><style type="text/css"></style></defs><path d="M776 192H248c-30.8 0-56 25.2-56 56v528c0 30.8 25.2 56 56 56h528c30.8 0 56-25.2 56-56V248c0-30.8-25.2-56-56-56z m0 568c0 8.8-7.2 16-16 16H264c-8.8 0-16-7.2-16-16V264c0-8.8 7.2-16 16-16h496c8.8 0 16 7.2 16 16v496z" fill="" p-id="2783"></path></svg>